<svg width="40" height="40" viewBox="0 0 40 40" fill="none" xmlns="http://www.w3.org/2000/svg">
<rect x="0.5" y="0.5" width="39" height="39" rx="19.5" fill="#0D0D0D"/>
<rect x="0.5" y="0.5" width="39" height="39" rx="19.5" stroke="#262626"/>
<path fill-rule="evenodd" clip-rule="evenodd" d="M12 20C12 19.5266 12.3838 19.1429 12.8571 19.1429L25.0148 19.1429L20.2631 14.6179C19.9218 14.2898 19.9112 13.7472 20.2393 13.4059C20.5674 13.0647 21.11 13.0541 21.4512 13.3822L27.737 19.3822C27.905 19.5438 28 19.7669 28 20C28 20.2332 27.905 20.4563 27.737 20.6179L21.4512 26.6179C21.11 26.946 20.5674 26.9354 20.2393 26.5941C19.9112 26.2529 19.9218 25.7103 20.2631 25.3822L25.0148 20.8572L12.8571 20.8572C12.3838 20.8572 12 20.4734 12 20Z" fill="white"/>
</svg>
