<svg width="40" height="40" viewBox="0 0 40 40" fill="none" xmlns="http://www.w3.org/2000/svg">
<rect x="0.5" y="0.5" width="39" height="39" rx="19.5" stroke="#0D0D0D"/>
<path fill-rule="evenodd" clip-rule="evenodd" d="M28 20C28 20.4734 27.6162 20.8571 27.1429 20.8571L14.9852 20.8571L19.7369 25.3821C20.0782 25.7102 20.0888 26.2528 19.7607 26.5941C19.4326 26.9353 18.89 26.9459 18.5488 26.6178L12.263 20.6178C12.095 20.4562 12 20.2331 12 20C12 19.7668 12.095 19.5437 12.263 19.3821L18.5488 13.3821C18.89 13.054 19.4326 13.0646 19.7607 13.4059C20.0888 13.7471 20.0782 14.2897 19.7369 14.6178L14.9852 19.1428L27.1429 19.1428C27.6162 19.1428 28 19.5266 28 20Z" fill="#0D0D0D"/>
</svg>
