<svg width="17" height="15" viewBox="0 0 17 15" fill="none" xmlns="http://www.w3.org/2000/svg">
<path d="M0 3C0 1.34315 1.34315 0 3 0H13C14.6569 0 16 1.34315 16 3V6.3411C15.4625 5.53275 14.5435 5 13.5 5C11.8431 5 10.5 6.34315 10.5 8C10.5 8.77327 10.7926 9.47821 11.273 10.0102C10.166 10.1098 9.26699 10.9311 9.05001 12H3C1.34315 12 0 10.6569 0 9V3ZM2 3V6C2 6.55228 2.44772 7 3 7H7C7.55228 7 8 6.55228 8 6V3C8 2.44772 7.55228 2 7 2H3C2.44772 2 2 2.44772 2 3ZM15.5 8C15.5 9.10457 14.6046 10 13.5 10C12.3954 10 11.5 9.10457 11.5 8C11.5 6.89543 12.3954 6 13.5 6C14.6046 6 15.5 6.89543 15.5 8ZM17 12.5C17 13.7452 16 15 13.5 15C11 15 10 13.7499 10 12.5C10 11.6716 10.6716 11 11.5 11H15.5C16.3284 11 17 11.6716 17 12.5Z" fill="#F5853F"/>
</svg>
