<svg width="24" height="25" viewBox="0 0 24 25" fill="none" xmlns="http://www.w3.org/2000/svg">
<path d="M24 12.5C24 5.8726 18.6274 0.500027 12 0.500027C5.37258 0.500027 0 5.8726 0 12.5C0 18.4896 4.38823 23.454 10.125 24.3542V15.9688H7.07813V12.5H10.125V9.85628C10.125 6.84878 11.9165 5.18753 14.6576 5.18753C15.9705 5.18753 17.3438 5.4219 17.3438 5.4219V8.37503H15.8306C14.3399 8.37503 13.875 9.30003 13.875 10.249V12.5H17.2031L16.6711 15.9688H13.875V24.3542C19.6118 23.454 24 18.4896 24 12.5Z" fill="#1877F2"/>
<path d="M16.6711 15.9688L17.2031 12.5H13.875V10.249C13.875 9.30001 14.3399 8.375 15.8306 8.375H17.3438V5.42188C17.3438 5.42188 15.9705 5.1875 14.6576 5.1875C11.9165 5.1875 10.125 6.84875 10.125 9.85625V12.5H7.07812V15.9688H10.125V24.3542C10.7359 24.4501 11.3621 24.5 12 24.5C12.6379 24.5 13.2641 24.4501 13.875 24.3542V15.9688H16.6711Z" fill="white"/>
</svg>
