<svg width="25" height="25" viewBox="0 0 25 25" fill="none" xmlns="http://www.w3.org/2000/svg">
<g clip-path="url(#clip0_4323_6452)">
<path d="M24.4885 13.2244C24.4885 12.2412 24.4102 11.5236 24.2408 10.7795H13.2285V15.2175H19.6925C19.5622 16.3204 18.8585 17.9814 17.2946 19.0975L17.2727 19.246L20.7545 21.9962L20.9958 22.0208C23.2112 19.9346 24.4885 16.8652 24.4885 13.2244Z" fill="#4285F4"/>
<path d="M13.23 24.9176C16.3968 24.9176 19.0554 23.8545 20.9972 22.0209L17.296 19.0976C16.3056 19.8018 14.9763 20.2934 13.23 20.2934C10.1283 20.2934 7.49579 18.2074 6.55737 15.324L6.41982 15.3359L2.7993 18.1927L2.75195 18.3269C4.68072 22.2334 8.64256 24.9176 13.23 24.9176Z" fill="#34A853"/>
<path d="M6.5565 15.324C6.30889 14.58 6.16559 13.7826 6.16559 12.9589C6.16559 12.135 6.30889 11.3378 6.54347 10.5937L6.53691 10.4352L2.87102 7.53247L2.75107 7.59064C1.95614 9.21174 1.5 11.0322 1.5 12.9589C1.5 14.8855 1.95614 16.7059 2.75107 18.327L6.5565 15.324Z" fill="#FBBC05"/>
<path d="M13.23 5.62403C15.4324 5.62403 16.9181 6.59402 17.7652 7.40461L21.0754 4.10928C19.0424 2.1826 16.3968 1 13.23 1C8.64256 1 4.68072 3.68406 2.75195 7.59056L6.54435 10.5936C7.49579 7.7102 10.1283 5.62403 13.23 5.62403Z" fill="#EB4335"/>
</g>
<defs>
<clipPath id="clip0_4323_6452">
<rect width="24" height="25" fill="white" transform="translate(0.5)"/>
</clipPath>
</defs>
</svg>
