<svg width="17" height="17" viewBox="0 0 17 17" fill="none" xmlns="http://www.w3.org/2000/svg">
<path d="M8.50042 0.500089C8.50042 0.223897 8.27655 0 8.00039 0C7.72424 0 7.50037 0.223897 7.50037 0.500089V1H2.75C1.23122 1 0 2.23122 0 3.75V10.2518C0 11.7709 1.23128 13.0023 2.75013 13.0023H4.56601L3.08418 15.2253C2.931 15.4552 2.99309 15.7656 3.22286 15.9188C3.45264 16.072 3.76309 16.01 3.91627 15.7801L5.76792 13.0023H8.01185L8.01211 13H9.49982C9.91326 12.4496 10.5486 12.0754 11.273 12.0102C10.7926 11.4782 10.5 10.7733 10.5 10C10.5 8.34315 11.8431 7 13.5 7C14.544 7 15.4634 7.53327 16.0008 8.34229V3.75067C16.0008 2.49406 15.1582 1.43427 14.0073 1.10558C13.7667 1.03682 13.5126 1 13.25 1H8.50042V0.500089ZM3 4.50082C3 4.22463 3.22387 4.00073 3.50002 4.00073H6.50017C6.77633 4.00073 7.0002 4.22463 7.0002 4.50082C7.0002 4.77701 6.77633 5.00091 6.50017 5.00091H3.50002C3.22387 5.00091 3 4.77701 3 4.50082ZM3.50002 9.00162H7.50022C7.77638 9.00162 8.00025 9.22552 8.00025 9.50171C8.00025 9.7779 7.77638 10.0018 7.50022 10.0018H3.50002C3.22387 10.0018 3 9.7779 3 9.50171C3 9.22552 3.22387 9.00162 3.50002 9.00162ZM3.50002 6.50118H8.50027C8.77643 6.50118 9.0003 6.72507 9.0003 7.00127C9.0003 7.27746 8.77643 7.50135 8.50027 7.50135H3.50002C3.22387 7.50135 3 7.27746 3 7.00127C3 6.72507 3.22387 6.50118 3.50002 6.50118ZM15.5 10C15.5 11.1046 14.6046 12 13.5 12C12.3954 12 11.5 11.1046 11.5 10C11.5 8.89543 12.3954 8 13.5 8C14.6046 8 15.5 8.89543 15.5 10ZM17 14.5C17 15.7452 16 17 13.5 17C11 17 10 15.7499 10 14.5C10 13.6716 10.6716 13 11.5 13H15.5C16.3284 13 17 13.6716 17 14.5Z" fill="#2196F3"/>
</svg>
